<?xml version="1.0" standalone="no"?>
<!DOCTYPE svg PUBLIC "-//W3C//DTD SVG 20010904//EN"
 "http://www.w3.org/TR/2001/REC-SVG-20010904/DTD/svg10.dtd">
<svg version="1.0" xmlns="http://www.w3.org/2000/svg"
 width="1500.000000pt" height="1111.000000pt" viewBox="0 0 1500.000000 1111.000000"
 preserveAspectRatio="xMidYMid meet">

<g transform="translate(0.000000,1111.000000) scale(0.100000,-0.100000)"
fill="#000000" stroke="none">
<path d="M5640 10789 c-170 -9 -291 -19 -310 -24 -8 -2 -78 -14 -155 -25 -393
-60 -763 -168 -1025 -300 -296 -149 -558 -353 -783 -610 -211 -241 -313 -402
-400 -630 -79 -209 -110 -382 -110 -620 0 -162 4 -200 27 -305 70 -319 170
-532 371 -790 30 -38 50 -71 46 -73 -6 -2 -655 315 -732 357 -103 57 -990 501
-985 493 10 -16 368 -309 541 -442 60 -46 117 -90 125 -96 113 -92 290 -227
629 -481 l234 -175 -95 -96 c-83 -84 -100 -107 -127 -175 l-32 -77 5 -1188 4
-1187 30 -74 c27 -67 41 -85 162 -206 124 -124 138 -135 204 -159 70 -26 76
-26 333 -26 241 0 262 -1 265 -17 9 -41 -4 -58 -60 -82 -31 -14 -93 -42 -137
-62 -44 -21 -150 -68 -235 -107 -332 -148 -838 -375 -888 -398 -79 -36 -78
-36 -70 59 3 45 7 99 7 120 l1 37 -79 0 -79 0 -7 -67 c-4 -38 -11 -95 -15
-128 -5 -33 -12 -102 -16 -153 l-7 -93 -36 -23 c-20 -12 -79 -45 -131 -73
-194 -102 -949 -508 -1065 -573 -66 -37 -177 -97 -247 -134 l-128 -68 6 -51
c24 -221 130 -442 271 -567 75 -67 142 -106 257 -150 545 -207 1104 50 1403
643 46 92 100 241 123 337 21 92 25 96 166 161 71 32 137 64 146 69 29 16 681
308 928 415 63 28 54 37 105 -99 245 -659 705 -1201 1406 -1659 474 -309 960
-507 1534 -626 238 -49 392 -63 770 -68 309 -4 874 8 985 22 19 2 89 9 155 15
126 12 517 70 645 96 419 86 933 245 1451 450 l166 66 69 96 69 97 3 675 c2
587 4 677 18 697 11 18 21 22 36 17 24 -7 416 -183 560 -251 111 -52 105 -43
153 -225 97 -367 354 -694 672 -852 208 -104 475 -132 703 -76 126 32 291 115
372 189 147 135 237 313 273 541 7 47 12 86 12 86 -3 2 -155 83 -272 144 -55
29 -122 65 -150 80 -27 15 -108 58 -180 95 -71 37 -173 91 -225 120 -52 29
-147 79 -210 112 -129 68 -464 245 -525 278 l-40 22 -12 104 c-6 57 -17 157
-24 221 l-11 118 -80 0 -81 0 8 -120 c4 -66 4 -120 0 -120 -17 0 -268 112
-276 123 -3 5 -5 23 -4 40 2 18 6 115 9 217 4 102 9 209 12 238 5 43 1 64 -22
122 -26 63 -44 86 -166 209 -129 130 -141 140 -216 170 l-80 32 -903 -3 -904
-3 -100 44 c-55 24 -161 70 -235 102 -74 32 -234 101 -355 154 -121 54 -239
104 -262 113 -24 9 -43 20 -43 24 0 4 27 41 61 83 158 200 287 432 384 690 37
100 44 119 63 165 10 24 14 21 154 -120 218 -221 332 -411 483 -810 37 -96 72
-184 79 -195 8 -11 54 -48 105 -82 l91 -63 331 0 330 0 73 34 c63 29 90 51
202 165 98 100 136 146 159 194 l30 62 2 905 c1 498 2 926 2 952 1 53 -23 30
291 268 302 228 895 684 999 766 42 33 121 96 177 140 140 110 329 264 388
317 41 36 47 45 32 50 -12 5 -19 0 -25 -14 -8 -22 -82 -61 -916 -484 -777
-394 -938 -474 -946 -470 -4 3 -20 26 -35 52 -15 26 -88 106 -161 178 -114
110 -144 134 -201 158 l-66 27 -329 0 -329 0 -101 -67 -101 -68 -39 -95 c-21
-52 -42 -99 -47 -103 -8 -9 -48 1 -325 88 -376 117 -649 177 -932 206 -68 6
-123 12 -123 13 0 1 55 57 123 126 162 166 171 178 197 256 23 69 27 164 15
382 -2 43 -6 160 -10 262 -3 102 -7 239 -10 305 -3 66 -10 262 -15 435 -5 173
-12 360 -15 415 -2 55 -7 172 -11 260 -5 148 -8 165 -36 230 -26 62 -43 83
-159 194 -101 97 -143 131 -192 153 l-62 27 -431 1 -431 0 -34 -141 c-19 -77
-37 -146 -41 -152 -4 -7 -53 5 -145 36 -345 114 -515 159 -795 207 -259 44
-589 63 -848 49z m2668 -239 c7 0 46 -33 87 -73 l75 -72 10 -210 c5 -116 14
-367 20 -558 9 -330 15 -501 25 -717 2 -52 7 -205 10 -340 l7 -245 -77 -77
-77 -78 -284 0 c-156 0 -284 1 -284 3 0 24 -49 218 -76 302 -80 248 -183 415
-379 611 -139 139 -260 229 -440 325 -22 12 -42 25 -45 28 -14 18 -234 110
-375 156 -352 117 -796 132 -1160 40 -163 -41 -326 -135 -429 -245 -44 -48
-55 -67 -65 -118 -12 -52 -11 -67 4 -118 14 -48 28 -69 79 -119 71 -70 184
-151 307 -222 117 -66 505 -231 732 -309 136 -48 424 -150 667 -237 816 -294
1331 -541 1702 -815 52 -39 60 -41 144 -47 425 -30 603 -66 1120 -231 481
-152 575 -179 608 -170 67 17 138 127 221 342 l27 72 46 6 c24 3 130 6 235 6
l191 0 84 -84 84 -84 -3 -118 c-2 -90 0 -118 9 -116 7 1 180 103 385 226 545
327 989 591 1015 605 41 22 23 5 -70 -64 -96 -71 -1132 -845 -1179 -880 -14
-11 -53 -40 -85 -64 -32 -24 -64 -50 -71 -58 -8 -11 -10 -243 -8 -905 l4 -892
-82 -83 -81 -83 -239 2 -239 3 -33 90 c-164 458 -379 789 -700 1077 -133 120
-280 220 -440 298 -116 57 -275 124 -281 118 -1 -2 2 -39 7 -83 10 -72 6 -300
-5 -350 -3 -11 -12 -54 -21 -95 -75 -336 -266 -642 -568 -908 -174 -153 -507
-357 -747 -457 -36 -15 -83 -35 -105 -45 -75 -34 -320 -108 -455 -138 -220
-50 -371 -74 -535 -87 -38 -3 -91 -8 -117 -11 l-48 -6 0 -181 c0 -392 52 -829
134 -1140 89 -334 193 -561 340 -746 208 -263 528 -442 921 -515 188 -36 217
-38 428 -38 254 0 383 15 620 74 l127 32 0 606 c0 617 -6 728 -38 763 -27 30
-122 74 -196 91 -48 12 -121 16 -254 16 -103 0 -194 5 -202 10 -8 5 -47 41
-86 81 l-72 71 -1 187 -1 186 80 79 80 79 1713 4 1712 5 78 -79 77 -79 -2
-259 -3 -260 -87 -3 c-49 -1 -88 -6 -88 -10 0 -4 76 -46 168 -93 92 -48 251
-130 353 -182 103 -53 189 -93 193 -90 3 4 6 116 6 250 -1 134 1 247 5 252 3
5 17 6 33 2 l27 -7 12 -175 c6 -96 11 -213 12 -261 l1 -86 103 -55 c56 -30
145 -77 197 -104 52 -28 142 -75 200 -106 162 -85 443 -233 680 -357 118 -62
222 -120 232 -129 15 -15 14 -21 -13 -86 -15 -38 -29 -79 -29 -89 0 -24 -147
-169 -220 -217 -73 -48 -181 -101 -255 -125 -48 -15 -89 -19 -210 -19 -131 1
-158 4 -215 24 -147 53 -290 141 -396 245 -39 38 -115 131 -128 156 -104 199
-120 247 -135 395 -7 71 -7 120 1 168 6 37 9 69 7 71 -2 1 -101 56 -219 121
-118 65 -246 137 -285 159 -38 22 -86 48 -105 57 -19 9 -87 45 -150 81 -63 36
-146 82 -185 103 -38 21 -75 42 -82 47 -30 24 -140 -38 -170 -95 -24 -48 -29
-235 -25 -1018 3 -558 1 -687 -10 -696 -28 -22 -484 -193 -633 -238 -22 -6
-47 -15 -55 -18 -45 -19 -387 -116 -550 -156 -168 -41 -238 -54 -490 -95 -462
-75 -654 -90 -1190 -90 -516 -1 -663 8 -1060 68 -209 32 -597 141 -795 223
-278 116 -497 231 -720 378 -122 80 -340 237 -355 254 -3 3 -34 30 -70 60
-120 100 -374 365 -453 471 -42 58 -80 110 -85 115 -67 87 -227 379 -281 512
-12 29 -30 75 -41 103 -34 82 -97 298 -120 410 -13 58 -24 106 -25 108 -3 3
-1576 -786 -1587 -797 -4 -4 -10 -58 -12 -121 -21 -511 -282 -900 -691 -1030
-88 -28 -322 -40 -406 -20 -183 41 -305 110 -427 239 -72 76 -172 245 -172
288 0 5 35 28 78 50 133 71 285 153 517 278 33 18 96 52 140 75 149 80 349
187 510 274 87 47 163 86 167 86 11 0 14 21 43 250 40 325 36 305 67 308 l27
3 -4 -103 c-11 -243 -15 -398 -11 -398 11 0 70 29 276 136 118 61 319 164 445
229 127 64 298 152 380 195 83 43 242 125 355 183 113 58 218 112 234 121 l29
15 3 293 c1 161 4 307 8 323 3 17 7 50 10 75 2 25 7 68 11 96 l7 52 -48 -5
c-72 -7 -111 -21 -185 -64 -69 -40 -97 -72 -176 -196 l-45 -73 -236 0 -237 0
-77 77 -78 78 0 1150 0 1150 76 80 76 80 126 5 126 5 -100 74 c-54 41 -101 77
-104 80 -3 3 -59 47 -125 96 -66 50 -125 95 -131 100 -6 6 -40 31 -75 57 -62
45 -338 255 -527 401 -52 40 -104 79 -116 87 -12 8 -40 30 -62 49 -51 43 -26
30 161 -84 82 -50 229 -139 325 -197 96 -58 247 -150 335 -203 187 -114 344
-209 660 -402 127 -76 284 -172 350 -212 466 -284 869 -524 881 -525 8 0 58
42 111 95 108 106 250 232 331 294 29 21 52 42 52 45 0 6 -59 30 -275 108
-128 47 -483 188 -570 227 -429 190 -841 457 -1060 687 -115 120 -245 281
-245 303 0 2 -15 28 -34 57 -71 113 -141 302 -171 466 -14 75 -16 130 -12 275
4 164 8 194 36 302 128 477 474 861 1062 1178 357 192 922 320 1479 334 247 6
392 -3 665 -42 294 -42 509 -96 850 -210 263 -88 358 -114 446 -122 51 -4 68
-2 81 10 17 17 87 203 114 304 l16 62 137 3 c75 2 179 2 231 1 52 -1 101 -3
108 -3z m-2181 -1380 c289 -38 566 -154 808 -338 88 -67 241 -219 284 -282 21
-30 50 -79 65 -109 l28 -54 -24 6 c-12 3 -106 36 -208 73 -102 36 -207 74
-235 84 -27 10 -111 41 -185 70 -74 28 -225 86 -335 127 -235 89 -233 88 -485
187 -268 105 -380 157 -380 178 0 11 89 35 175 48 44 6 87 13 95 15 38 7 327
4 397 -5z m1842 -4909 c10 -7 -12 -36 -94 -120 -93 -95 -113 -122 -142 -188
l-34 -78 5 -257 c8 -345 6 -341 190 -530 123 -126 139 -139 209 -168 72 -30
83 -31 194 -30 65 1 142 1 171 1 l52 -1 0 -355 c0 -195 -3 -355 -7 -355 -5 0
-37 -5 -73 -10 -75 -11 -303 -14 -405 -5 -38 4 -115 16 -170 27 -270 54 -471
160 -636 335 -75 81 -146 199 -184 308 -9 28 -21 59 -26 70 -18 45 -39 118
-68 241 -60 262 -85 426 -106 701 l-6 81 53 10 c29 6 94 18 143 27 104 19 350
79 410 100 194 66 339 124 440 174 69 34 66 34 84 22z"/>
<path d="M5555 10283 c-217 -11 -617 -77 -825 -137 -455 -130 -885 -409 -1129
-733 -169 -224 -252 -460 -253 -718 -2 -250 74 -482 228 -695 58 -81 205 -237
293 -313 230 -196 637 -426 1041 -585 367 -146 526 -206 715 -272 77 -27 185
-66 240 -86 55 -20 115 -41 133 -47 17 -6 32 -13 32 -17 0 -3 -35 -26 -77 -50
-93 -52 -258 -163 -294 -196 -14 -13 -30 -24 -36 -24 -6 0 -13 -4 -15 -8 -1
-5 -28 -27 -58 -51 -156 -121 -377 -342 -543 -541 -82 -98 -232 -332 -307
-475 -40 -77 -74 -142 -76 -144 -6 -7 -197 121 -289 192 -124 97 -191 163
-304 297 -192 228 -338 486 -431 765 l-47 140 -94 3 c-75 2 -96 0 -105 -13 -8
-11 -10 -226 -7 -782 2 -423 4 -888 3 -1035 l0 -268 105 0 c104 0 105 0 119
28 25 47 128 147 206 197 113 73 221 107 345 108 97 1 241 -15 318 -34 36 -9
38 -12 32 -37 -4 -15 -13 -61 -20 -102 -7 -41 -18 -97 -24 -123 -38 -165 -54
-611 -31 -822 59 -529 238 -955 593 -1410 61 -80 324 -333 432 -417 231 -180
468 -330 700 -445 416 -206 713 -295 1230 -369 179 -25 217 -27 653 -32 443
-4 699 4 892 28 41 5 118 14 170 20 255 31 489 73 745 135 83 21 175 43 205
50 30 7 99 27 153 44 53 17 141 45 194 61 108 34 244 82 373 133 l85 33 6 754
c3 415 9 770 12 789 11 60 64 159 114 212 90 97 193 139 413 168 84 12 170 21
192 21 l38 0 0 86 0 86 -1597 -5 c-879 -3 -1599 -6 -1600 -6 -2 -1 -3 -39 -3
-86 l0 -85 153 1 c192 0 301 -21 432 -85 105 -52 165 -100 202 -164 53 -89 55
-133 60 -939 l4 -741 -98 -31 c-126 -39 -207 -61 -263 -71 -25 -5 -72 -16
-105 -24 -83 -22 -427 -56 -555 -56 -95 0 -214 9 -355 25 -27 4 -87 15 -131
26 -45 10 -88 19 -95 19 -19 0 -201 57 -269 83 -182 73 -383 192 -510 306 -19
17 -38 31 -41 31 -20 0 -289 340 -289 363 0 3 -16 34 -36 67 -129 221 -256
658 -315 1089 -41 303 -57 773 -34 1038 l8 93 31 1 c17 1 51 1 76 1 72 0 357
27 450 43 47 8 108 17 135 20 28 4 75 13 105 20 30 8 89 21 130 30 200 41 522
164 715 273 329 186 595 418 750 658 67 102 84 137 128 255 107 286 82 671
-60 938 -13 24 -21 46 -19 49 5 4 141 -18 241 -39 92 -20 289 -81 375 -116
300 -124 545 -286 774 -511 142 -140 223 -237 333 -402 128 -191 166 -259 234
-416 33 -77 67 -154 75 -173 l15 -33 82 6 c45 3 85 5 90 6 4 0 7 463 7 1029 0
972 -1 1030 -17 1034 -15 4 -108 3 -160 -2 -6 -1 -15 -11 -19 -23 -12 -41 -57
-132 -92 -186 -78 -123 -194 -199 -320 -209 -72 -5 -186 20 -403 91 -57 18
-171 55 -254 80 -82 26 -175 56 -205 66 -254 89 -590 148 -940 166 l-125 6
-65 52 c-36 29 -87 68 -115 87 -27 19 -52 36 -55 39 -7 8 -86 58 -123 79 -30
17 -113 64 -182 103 -109 61 -505 241 -715 325 -274 109 -308 121 -890 327
-52 19 -147 53 -210 76 -63 23 -144 52 -180 65 -160 58 -346 132 -387 154 -10
5 -74 36 -143 69 -112 54 -218 115 -337 194 -22 15 -81 65 -131 112 -195 186
-238 389 -130 613 57 119 252 286 425 364 217 99 491 149 819 149 300 0 604
-60 883 -174 323 -132 611 -323 835 -554 185 -190 323 -422 407 -682 l37 -115
113 0 114 0 -1 90 c-1 149 -14 665 -19 745 -3 41 -10 212 -16 380 -6 168 -14
377 -18 465 l-6 160 -83 0 -84 0 -42 -107 c-23 -58 -54 -125 -70 -148 -35 -52
-103 -96 -175 -111 -69 -14 -202 -7 -296 16 -90 22 -321 92 -360 110 -16 7
-39 15 -50 18 -11 3 -78 24 -150 46 -286 88 -480 126 -830 162 -102 10 -402
17 -510 12z m1347 -3788 c20 -14 40 -25 44 -25 17 0 134 -100 193 -164 114
-127 156 -232 149 -372 -4 -73 -10 -94 -44 -161 -54 -107 -171 -223 -296 -293
-161 -89 -413 -160 -572 -160 l-59 0 6 58 c26 250 186 705 310 887 86 125 199
255 222 255 6 0 27 -11 47 -25z"/>
<path d="M6833 6187 c-97 -138 -160 -275 -222 -490 -39 -134 -39 -139 -3 -131
128 28 281 109 368 196 29 27 64 75 79 104 24 47 27 63 22 113 -8 90 -60 175
-156 250 l-36 29 -52 -71z"/>
<path d="M3846 6554 c39 -162 189 -450 337 -647 68 -90 231 -255 299 -304 l45
-32 33 57 c50 85 101 163 130 202 48 63 64 91 49 85 -8 -3 -25 3 -39 14 -27
21 -172 133 -231 178 -35 27 -67 51 -254 193 -44 33 -141 106 -215 162 -74 55
-141 106 -148 111 -11 8 -12 5 -6 -19z"/>
<path d="M2270 2614 c-36 -19 -329 -168 -652 -331 -526 -266 -586 -299 -577
-315 5 -10 29 -40 52 -67 23 -27 60 -72 82 -100 46 -58 139 -110 245 -137 95
-24 289 -15 385 19 135 47 214 96 316 197 99 97 159 196 195 319 23 81 46 452
27 450 -5 0 -37 -16 -73 -35z m0 -171 c0 -113 -39 -258 -92 -346 -82 -133
-170 -203 -349 -274 -126 -51 -224 -68 -338 -59 -110 8 -157 20 -268 68 -75
32 -96 46 -113 74 -11 20 -20 37 -20 40 0 4 61 34 245 117 381 172 856 390
885 407 19 10 38 19 43 20 4 0 7 -21 7 -47z"/>
<path d="M12497 2608 c-43 -102 -53 -278 -23 -382 32 -108 172 -286 290 -371
83 -58 149 -90 253 -121 76 -23 106 -27 218 -28 166 0 262 24 369 94 77 50
196 177 196 208 0 14 -69 53 -275 155 -151 75 -277 137 -280 137 -3 0 -80 36
-171 80 -91 44 -168 80 -170 80 -3 0 -91 41 -195 90 -105 50 -192 90 -194 90
-3 0 -11 -15 -18 -32z m94 -112 c30 -13 93 -42 142 -65 48 -22 89 -41 91 -41
2 0 42 -17 88 -39 103 -48 367 -168 553 -251 77 -35 145 -66 150 -70 6 -4 27
-13 48 -19 20 -7 37 -19 37 -27 0 -26 -81 -93 -156 -128 -133 -63 -166 -71
-309 -71 -152 1 -228 21 -355 95 -88 51 -209 168 -235 228 -11 23 -22 42 -26
42 -3 0 -12 15 -19 33 -7 17 -18 46 -25 62 -7 17 -18 48 -23 70 -11 44 -26
205 -19 205 3 0 29 -11 58 -24z"/>
</g>
</svg>
